<?xml version="1.0" encoding="UTF-8"?><svg id="c" xmlns="http://www.w3.org/2000/svg" viewBox="0 0 589.41 488"><defs><style>.cls-1{fill:#010101;}.cls-2{fill:#efd138;}.cls-3{fill:#ef7238;}.cls-4{fill:#fff;}.cls-5{fill:#fc0;}.cls-6{fill:#ffb400;}.cls-7{fill:#efff38;}.cls-8{fill:#ff7014;}.cls-9{fill:#7cd1ff;}.cls-10{fill:#6b6b6b;}.cls-11{fill:#97ff38;}.cls-12{fill:#95292c;}.cls-13{fill:#8c8c8c;}.cls-14{fill:#cc4043;}.cls-15{fill:#d39500;}.cls-16{fill:#d2d2d2;}.cls-17{fill:#e25114;}.cls-18{fill:#ae4043;}.cls-19{fill:#7c54ff;}</style></defs><path class="cls-16" d="m584.28,229.5C628.92,27.87,371.59,17.13,226.34,54.07,53.24,98.1-43.11,194.22,18.85,274.13c168.53,217.34,477.69,351.68,565.43-44.62Z"/><path d="m169.34,255.47c.2-6.5,1.25-13.07,3.27-19.37,2.02-6.29,4.99-12.32,8.82-17.69,3.83-5.36,8.43-10.09,13.48-14.1,5.05-4.01,10.54-7.32,16.24-10,11.42-5.36,23.6-8.26,35.75-9.56,6.08-.64,12.19-.92,18.27-.79,6.08.13,12.14.59,18.16,1.32l-4.37,25.31c-5.04-1.24-10.11-2.25-15.22-2.94-5.1-.69-10.22-.99-15.31-.96-10.16.08-20.27,1.69-29.37,5.41-9.08,3.68-17.04,9.55-22.29,17.18-5.24,7.63-7.51,16.9-6.77,26.2h-20.68Z"/><path class="cls-5" d="m253.68,118.76c.18.43.36.86.55,1.3,22.68,49.97,30.05,111.19,19.04,167.5-3.27,16.72-2.15,58.79,10.73,79.71-6.39,11.8,37.4,22.28,37.84,4.51,55.32-20.75,85.78-113.3,83.69-174.24-1.37-40.18-24.62-91.56-49.6-123-48.36-21.39-87.78-20.18-102.24,44.23h0Z"/><path class="cls-6" d="m405.53,197.53c-1.37-40.18-24.62-91.56-49.6-123-18.72-8.28-36.1-13.17-51.21-12.32,5.4,2.48,10.92,5.39,16.54,8.66,21.37,34,51.72,88.65,52.27,129.32,1.07,79.33-47.76,138.01-95.93,152.21,1.7,5.56,3.81,10.65,6.41,14.86-6.39,11.8,37.4,22.28,37.84,4.51,55.32-20.75,85.78-113.3,83.69-174.24h0Z"/><path d="m249.65,117.85c1.19-4.92,2.43-9.85,4.12-14.67.76-2.43,1.77-4.81,2.68-7.2,1.06-2.35,2.05-4.73,3.3-7.01,2.39-4.6,5.21-9.05,8.65-13.1,3.44-4.03,7.51-7.65,12.12-10.47,4.61-2.82,9.71-4.8,14.93-5.94,5.22-1.14,10.53-1.47,15.74-1.24,10.44.46,20.43,3,29.98,6.26,4.79,1.62,9.47,3.48,14.07,5.47l2.22.96c1.15.23,1.62,1.38,2.28,2.14l2.33,3.06c1.56,1.98,2.97,4.05,4.41,6.11,5.73,8.25,10.9,16.84,15.62,25.65,4.72,8.82,8.89,17.93,12.62,27.21,3.69,9.3,6.99,18.78,9.46,28.53,2.49,9.74,4.33,19.7,5.02,29.86.69,10.15.32,20.19-.63,30.18-1.94,19.97-6.15,39.65-12.47,58.69-6.37,19-14.81,37.46-26.35,54.17-5.8,8.32-12.48,16.13-20.17,22.98-.93.89-1.96,1.67-2.96,2.49-1.01.8-1.99,1.64-3.03,2.42l-3.17,2.25c-.53.37-1.05.76-1.6,1.11l-1.66,1.02c-1.11.68-2.21,1.37-3.34,2.03l-3.48,1.8c-.58.3-1.16.61-1.75.89l-1.81.77-.86.36c-.09.05-.22.07-.27.15,0,.1,0,.17-.03.28l-.02.11v.05s-.08.23-.08.23c-.13.38-.23.75-.4,1.12-.6,1.48-1.54,2.85-2.63,3.95-2.23,2.23-4.86,3.35-7.31,4.04-4.95,1.3-9.63,1.13-14.18.49-4.54-.7-8.96-1.95-13.27-4.18-2.14-1.16-4.31-2.52-6.28-4.88-.96-1.17-1.89-2.74-2.28-4.7-.18-.98-.2-2.03-.05-3.04.02-.16.04-.19.06-.29l.03-.12v-.03s.03-.07.05-.11c.01-.08-.09-.18-.12-.25l-.04-.07-.26-.47-.52-.94-.52-.94-.43-.96-.86-1.93-.85-1.93-.71-1.96c-.45-1.31-.97-2.61-1.37-3.93-1.65-5.27-2.84-10.61-3.81-15.96-1.8-10.72-2.66-21.51-2.56-32.36.07-5.44.3-10.86,1.09-16.44.46-2.92.89-5.36,1.33-7.94.42-2.57.94-5.12,1.22-7.71l1.01-7.74c.27-2.59.48-5.19.72-7.78.11-1.3.26-2.59.33-3.89l.2-3.9.2-3.9c.08-1.3.14-2.6.13-3.91l.1-7.82c.02-2.61-.11-5.22-.15-7.83l-.1-3.91-.24-3.91c-.18-2.6-.28-5.21-.53-7.81-.89-10.41-2.41-20.76-4.36-31.03-2.05-10.25-4.69-20.38-7.82-30.35l-2.52-7.42c-.4-1.24-.86-2.47-1.34-3.68l-1.41-3.66-1.41-3.66-1.55-3.61-3.19-7.37,9.5-3.92,3.1,7.34,1.58,3.75,1.43,3.82,1.43,3.81c.49,1.27.95,2.54,1.36,3.84l2.55,7.73c3.16,10.38,5.81,20.89,7.85,31.51,1.94,10.64,3.42,21.35,4.26,32.11.23,2.69.32,5.39.48,8.08l.22,4.04.07,4.04c.03,2.7.14,5.39.1,8.08l-.16,8.08c0,1.35-.08,2.69-.17,4.04l-.23,4.03-.24,4.03c-.08,1.34-.25,2.68-.36,4.02-.27,2.68-.5,5.36-.8,8.04l-1.1,8c-.32,2.67-.87,5.31-1.32,7.96-.47,2.63-.97,5.39-1.35,7.71-.74,4.92-1.01,10.09-1.11,15.22-.17,10.3.6,20.68,2.23,30.81.88,5.05,1.97,10.04,3.45,14.86.35,1.21.82,2.37,1.22,3.56l.63,1.77.74,1.69.74,1.7.37.85.43.79,1.07,1.97c.55,1.05,1.18,2.09,1.65,3.11l-.64,1.32-.48,1.04c0,.06,0,.1,0,.18.04.16.16.52.54.98.74.93,2.14,1.96,3.68,2.78,3.14,1.66,6.87,2.79,10.59,3.37,3.7.57,7.57.63,10.76-.22,1.57-.42,2.91-1.1,3.69-1.9.4-.4.68-.81.88-1.29.06-.11.08-.25.14-.37.01-.05.02-.01.04-.14l.04-.33.09-.66c.1-.92.15-1.9.21-2.82.92-.46,1.99-.85,2.97-1.28l2.49-1.05,1.62-.67c.53-.25,1.05-.53,1.57-.79l3.13-1.6c1.02-.59,2.01-1.22,3.02-1.82l1.51-.91c.5-.31.97-.67,1.46-1.01l2.9-2.04c.95-.7,1.85-1.47,2.79-2.21.92-.75,1.87-1.45,2.73-2.28,7.13-6.29,13.45-13.59,18.99-21.47,11.03-15.83,19.29-33.64,25.52-52.05,6.19-18.44,10.34-37.61,12.25-56.94.93-9.65,1.3-19.41.66-28.97-.63-9.55-2.37-19.09-4.76-28.47-2.38-9.39-5.57-18.59-9.16-27.63-3.63-9.02-7.69-17.89-12.29-26.46-4.6-8.57-9.64-16.91-15.19-24.87-1.4-1.98-2.76-3.99-4.26-5.88l-2.2-2.88c-.16-.17-.21-.36-.39-.39l-1.14-.49c-4.46-1.92-8.97-3.69-13.54-5.22-9.11-3.09-18.5-5.4-27.84-5.77-4.66-.19-9.29.12-13.73,1.11-4.44.98-8.67,2.65-12.49,5.01-3.83,2.36-7.23,5.4-10.19,8.9-2.95,3.51-5.44,7.47-7.58,11.64-1.12,2.06-2.01,4.26-2.97,6.41-.83,2.23-1.75,4.41-2.44,6.71-1.55,4.51-2.7,9.2-3.8,13.89l-8.07-1.81h0Z"/><path d="m292.74,362.59c-.18-.55.52-1.37,2.17-2.05,1.63-.68,4.25-1.17,7.5-.78,3.24.4,6.36,1.72,8.34,3.19,2.01,1.47,2.92,2.91,2.58,3.38-.36.51-1.08.58-2.57.15-1.49-.41-3.73-1.43-7.57-2.19-2.68-.49-5.17-.68-7.07-.81-1.89-.14-3.2-.29-3.39-.88h0Z"/><path d="m329.78,342.3c-.11-.12.62-1.04,2.12-2.69.77-.82,1.71-1.83,2.82-3.01,1.08-1.23,2.33-2.65,3.74-4.24,1.42-1.59,2.86-3.49,4.54-5.49.85-.99,1.62-2.12,2.48-3.25.84-1.14,1.75-2.32,2.64-3.56,3.5-5.05,7.3-10.98,10.98-17.93,3.61-6.98,6.71-14.3,9.16-21.38,2.51-7.06,4.12-13.93,5.38-19.85,2.35-11.9,2.62-20.15,3.06-20.13.17,0,.28.76.31,2.6.02.92.01,2.11-.01,3.62,0,1.51-.22,3.32-.39,5.5-.11,1.08-.16,2.27-.36,3.53-.19,1.26-.38,2.62-.6,4.07-.11.73-.22,1.48-.34,2.26-.16.77-.32,1.57-.49,2.39-.35,1.64-.67,3.4-1.11,5.24-1.76,7.36-4.53,16.35-9.29,26.78-3.39,7.24-7.23,13.83-11.05,19.59-1.99,2.83-3.84,5.54-5.8,7.91-.96,1.2-1.85,2.39-2.78,3.47-.94,1.07-1.85,2.09-2.71,3.07-1.69,1.99-3.41,3.62-4.86,5.09-.74.73-1.41,1.42-2.06,2.02-.66.58-1.27,1.12-1.82,1.6-2.2,1.91-3.46,2.9-3.57,2.78h0Z"/><path d="m373.48,150.75c-.34.11-1.53-2.62-3.66-7.69-2.13-5.07-5.23-12.48-9.57-21.64-4.36-9.15-9.27-18.24-13.17-25-3.89-6.76-6.67-11.26-6.38-11.46.26-.17,1.63,1.21,4.84,5.79,3.17,4.6,8.28,12.36,14.87,25.47,4.56,9.16,8.02,17.76,10.2,24.08,2.19,6.33,3.17,10.35,2.88,10.45h0Z"/><path d="m473.41,301.11c2.76-12.99,4.43-26.12,4.27-38.9.05-3.22-.3-6.32-.49-9.47l-.63-4.6-.16-1.15-.23-1.12-.47-2.23c-1.3-5.9-3.31-11.44-6.18-16.12-.36-.58-.7-1.18-1.08-1.75l-1.22-1.61c-.75-1.13-1.72-2.03-2.6-3.02-.42-.51-.94-.92-1.43-1.36l-1.46-1.32-1.6-1.16c-.52-.4-1.04-.8-1.63-1.12-4.49-2.81-9.69-4.79-15.46-5.89-5.73-1.16-11.89-1.59-18.3-1.58-6.4-.02-13.03.4-20.07.77l-.3-25.68c6.8.32,13.99.52,21.35,1.2,7.35.65,14.91,1.77,22.48,3.91,7.55,2.08,15.15,5.43,21.89,10.32,6.81,4.81,12.33,11.43,16.24,18.49,3.94,7.09,6.31,14.62,7.82,22.03l.54,2.79.27,1.39.18,1.39.71,5.55c.24,3.67.63,7.36.62,10.99.35,14.58-.92,28.83-2.73,42.94l-20.35-3.7h0Z"/><path class="cls-14" d="m342.48,211.89c-8.8,3.44-17.44,6.34-24.38,3.76,6.72-5.83,9.8-12.97,12.11-20.39,4.15-3.87,8.41-4.97,13.03,1.93,1.47,5.27,1.53,10.24-.76,14.71h0Z"/><path class="cls-4" d="m289.98,148.33c-8.49-6.25-20.73,25-8.23,26.82,8.88,1.29,15.88-21.19,8.23-26.82Z"/><path class="cls-4" d="m335.1,175.21c8.9-3.7,11.2-11.29,3.89-23.43-4.31-7.14-15.08-13.6-21.02-8.87-11.74,9.34,3.58,37.93,17.14,32.3Z"/><path d="m283.28,162.45c-.41,5.09.93,8.54,2.92,8.78s3.87-2.82,4.28-7.91c.41-5.09-.97-8.17-2.95-8.41s-3.84,2.44-4.25,7.53h0Z"/><path d="m293.24,168.32c-.56-.09-.66-1.94-.69-5.2-.07-1.63-.05-3.63-.3-5.87-.08-.55-.16-1.13-.24-1.72-.14-.56-.2-1.19-.39-1.76-.3-1.18-.77-2.36-1.43-3.27-.35-.41-.7-.81-1.09-.99-.18-.15-.39-.17-.59-.26-.21,0-.41-.11-.64-.07-.9-.03-2.01.49-2.95,1.27-1.93,1.57-3.3,3.89-4.25,5.92-1.89,4.15-2.41,7.4-3.02,7.34-.27-.02-.49-.33-.64-1.09-.15-.75-.21-1.96.02-3.73.24-1.77.74-4.14,2.22-7.03.78-1.42,1.8-2.98,3.45-4.42.86-.69,1.86-1.37,3.15-1.81,1.29-.42,2.95-.5,4.46.13,1.02.45,1.92,1.1,2.53,1.85.35.36.6.75.85,1.14.27.38.44.78.63,1.17.7,1.57,1.08,3.1,1.24,4.53.37,2.87.15,5.38-.14,7.45-.64,4.13-1.67,6.5-2.16,6.41h0Z"/><path d="m342.99,163.08c-.32,0-.66-.54-.99-1.5-.17-.48-.44-1.06-.66-1.73-.33-.66-.59-1.43-1.07-2.24-.87-1.64-2.16-3.54-4.06-5.47-1.88-1.92-4.41-3.85-7.52-5.31-3.06-1.46-6.64-2.2-9.18-1.33-1.25.44-2.16,1.28-2.79,2.43-.64,1.14-.83,2.57-1.01,3.88-.2,2.7.24,5.12.38,6.82.25,1.7.26,2.75-.04,2.86-.3.11-.71-.13-1.25-.9-.27-.39-.58-.9-.92-1.58-.3-.7-.64-1.56-.99-2.61-.28-1.09-.63-2.35-.75-3.93-.02-.2-.04-.39-.06-.6,0-.21,0-.42,0-.64,0-.44.01-.88.02-1.35.13-.95.22-1.97.65-3.06.1-.27.17-.55.31-.82.15-.27.3-.55.45-.82.28-.57.72-1.08,1.17-1.6.21-.27.48-.5.76-.72.28-.22.56-.44.85-.67.31-.18.63-.35.95-.52.32-.18.66-.34,1.01-.44.35-.11.7-.23,1.05-.34.35-.08.71-.13,1.08-.2.74-.16,1.45-.12,2.21-.16,1.46.06,2.98.25,4.44.69,4.13,1.16,7.49,3.36,10.11,5.78,2.63,2.41,4.42,5.18,5.44,7.66,1.02,2.5,1.27,4.7,1.17,6.17-.13,1.48-.46,2.25-.77,2.25h0Z"/><path d="m320.5,165.12c2.6,5.82,6.52,8.53,9.3,7.28s3.38-5.97.78-11.79c-2.6-5.82-6.32-8.1-9.11-6.85s-3.57,5.54-.97,11.36h0Z"/><path d="m335.1,179.92c0,.14-.34.25-1.02.34-.34.04-.76.08-1.26.11-.5,0-1.08-.05-1.73-.09-2.58-.25-6.51-1.16-10.47-4.06-1.97-1.44-3.71-3.2-5.08-5.06-1.35-1.88-2.29-3.84-2.93-5.58-1.19-3.53-.99-6.06-.78-6.06.13-.01.29.19.49.7.1.25.2.58.31.99.12.41.31.9.5,1.49.39,1.17,1,2.69,2.04,4.54,1.04,1.84,2.59,4.01,5.02,6.13,3.37,3,7.25,4.59,10.12,5.37,1.45.36,2.65.63,3.49.75.84.15,1.32.3,1.32.44h0Z"/><path d="m344.16,128.28c-.83.75-2.65-.07-5.58-1.35-1.47-.63-3.24-1.38-5.34-2-.26-.07-.53-.15-.8-.22l-.41-.11-.34-.07c-.45-.1-.99-.16-1.56-.22-1.17-.1-2.55-.11-4.07-.07-6.11.22-13.07.99-18.49.21-2.7-.36-5.03-1.14-6.43-2.13-1.42-1-1.79-2.02-1.49-2.43.31-.45.82-.71,1.52-.86.7-.15,1.63-.22,3.15-.34,1.5-.11,3.63-.33,6.57-.71,2.96-.36,6.69-.97,11.6-1.37,3.43-.24,6.89-.3,10.35.65.43.12.88.28,1.29.43.37.16.73.3,1.08.47.7.32,1.36.66,1.97,1.03,1.23.72,2.3,1.51,3.2,2.29,1.81,1.58,2.95,3.15,3.54,4.37.58,1.23.63,2.09.23,2.45h0Z"/><path d="m272.22,146.82c-.43,0-.84-.34-1.15-1.07-.3-.72-.49-1.84-.33-3.29.15-1.44.69-3.23,1.82-5.03,1.12-1.79,2.8-3.55,4.93-4.96,1.06-.71,2.2-1.32,3.3-1.8.99-.41,1.97-.82,2.92-1.21,1.8-.75,3.36-1.52,4.57-2.36,1.22-.82,2.11-1.71,2.77-2.46.67-.73,1.13-1.28,1.59-1.21.43.06.79.33,1.02,1.01.23.67.25,1.77-.27,3.27-.53,1.48-1.74,3.26-3.66,4.84-.96.8-2.08,1.53-3.33,2.23-1.22.69-2.67,1.32-3.82,1.94-3.43,1.81-5.86,4.06-7.29,6.18-1.47,2.11-2.18,3.93-3.07,3.93h0Z"/><path d="m292.44,220.44c.17-.22,1.03.05,2.33,1.01,1.29.95,3.01,2.63,4.59,5.16.38.64.75,1.29,1.07,1.95.33.66.61,1.33.86,1.99.51,1.32.81,2.61,1.01,3.72.08.56.17,1.07.18,1.54.02.46.05.86.02,1.2-.04.67-.14,1.05-.28,1.07-.32.04-.6-.47-1.07-1.91-.5-1.43-1.12-3.85-2.99-7.32-.35-.59-.67-1.18-1.02-1.72-.33-.56-.7-1.06-1.03-1.56-.69-.97-1.35-1.84-1.93-2.55-.28-.37-.56-.68-.78-.97-.21-.27-.41-.53-.59-.76-.32-.43-.45-.73-.36-.85h0Z"/><path d="m281.21,122.64c-.33-.17-.29-1.09.51-2.45.8-1.33,2.4-3.04,4.87-4.39,2.45-1.38,5.25-2.09,7.37-2.19,2.13-.12,3.53.27,3.53.65.02.42-.46.75-1.77,1.16-1.3.43-3.5.88-6.69,2.38-2.21,1.06-4.07,2.29-5.36,3.3-1.3.99-2.1,1.75-2.47,1.55h0Z"/><path d="m287.97,112.05c-.18-.21.09-.83,1.01-1.56.92-.71,2.49-1.46,4.56-1.74,2.07-.3,4.2-.04,5.7.46,1.51.49,2.38,1.14,2.28,1.4-.1.29-.52.4-1.54.33-1.02-.05-2.67-.33-5.28-.14-1.82.14-3.44.49-4.6.85-1.17.34-1.93.65-2.13.41h0Z"/><path d="m343.56,208.98c.15.04.44-.65.86-1.95.16-.66.36-1.47.5-2.44.05-.49.1-1.01.15-1.56.01-.56,0-1.15-.01-1.77-.06-.62-.13-1.28-.25-1.96-.17-.67-.31-1.38-.61-2.08-.54-1.4-1.4-2.86-2.73-4.03-1.32-1.17-3.12-2-5.08-2.14-.98-.08-1.98.01-3,.32-1.01.32-1.96.93-2.7,1.69-1.06,1.09-1.73,2.3-2.26,3.43-.53,1.14-.94,2.22-1.32,3.25-.74,2.05-1.37,3.85-2.03,5.4-1.3,3.11-2.73,5.2-4.02,6.6-1.27,1.4-2.31,2.16-2.94,2.7-2.51.02-5.06-.04-7.6-.2-16.66-.92-25.48-5.08-26.32-3.44-.18.36.43,1.07,1.75,2.06.33.25.7.51,1.12.79.42.27.89.51,1.4.79,1.03.52,2.19,1.19,3.55,1.68,5.38,2.2,13.35,4.08,22.24,4.13,12.75.11,20.72-2.32,25.22-4.3,1.12-.54,2.04-1.05,2.77-1.49.74-.45,1.27-.94,1.66-1.3.78-.76.97-1.28.77-1.63-.2-.36-1.39-.21-3.25.27-.97.16-2.09.45-3.38.71-.1.02-.21.04-.31.06,1.05-1.01,2.08-2.4,2.73-4.14.68-1.85.8-3.49.73-4.77-.08-1.29-.35-2.26-.62-2.94-.57-1.38-1.08-1.69-1.33-1.57-.29.13.05,1.41.09,3.25.02.92-.04,1.97-.25,3.05-.2,1.08-.57,2.18-1.07,3.2-1.02,2.04-2.3,3.36-3.19,4.26-.08.08-.16.16-.24.24-.29.05-.58.09-.89.13-4,.64-8.88,1.07-14.01,1.18.01,0,.03-.01.04-.02.71-.44,1.58-1.02,2.43-1.83.86-.81,1.75-1.81,2.57-3.01,1.66-2.39,2.95-5.52,4.18-8.76.63-1.61,1.27-3.26,2.14-4.69.87-1.43,2.02-2.51,3.48-2.79,1.51-.32,3.06-.05,4.29.6,1.25.64,2.22,1.62,2.92,2.68.73,1.05,1.08,2.24,1.41,3.31.1.56.23,1.08.3,1.6.05.52.1,1.01.15,1.48.05,1.89-.04,3.38-.14,4.39-.09,1.01-.07,1.57.08,1.6h0Z"/><path d="m187.38,232.68c-.06-.32,1-.7,2.82-1.54,1.8-.85,4.42-2.21,7-4.79,2.59-2.57,4.35-5.97,5.19-8.71.87-2.74.99-4.77,1.32-4.77.27,0,.65.73.59,2.94-.05,1.1-.24,2.57-.83,4.41-.6,1.82-1.62,4.02-3.47,6.29-2.61,3.16-5.94,4.99-8.43,5.76-2.51.79-4.15.68-4.19.41h0Z"/><path class="cls-5" d="m300.66,163.65c-44.63-14.36-62.38-7.26-63.04-1.27-2.06,18.64,20.25,36.47,54.32,23.02,1.62,4.24.76,16.8-3.45,20.74"/><path class="cls-6" d="m293.26,183.31c-6.34,6.47-15.54,8.02-28.97,6.36-26.38-3.26-25.42-24.01-24.67-25.07,16.03,25.93,52.19,12.68,53.64,18.7h0Z"/><path d="m288.21,205.86c-.14-.15-.02-.57.28-1.2.24-.7.67-1.64,1-3.05.34-1.39.67-3.17.84-5.32.1-1.07.13-2.24.14-3.48-.02-.62-.01-1.26-.06-1.91-.02-.32-.05-.65-.07-.99l-.06-.49c-.01-.08-.02-.09-.03-.14-.04-.15-.09-.28-.15-.39-.03-.04-.05-.13-.1-.13l-.21.12-.18.11-.08.05c.12-.03-.24.09-.42.16-.85.3-1.73.6-2.62.91-3.61,1.15-7.67,2.14-12.17,2.63-2.26.2-4.61.36-7.06.25-1.22,0-2.47-.16-3.74-.26-1.26-.19-2.55-.34-3.84-.64-5.16-1.07-10.59-3.26-15.28-7.18-4.66-3.89-8.22-9.43-9.29-15.53-.12-.76-.26-1.52-.3-2.29l-.09-1.15v-1.15c-.02-.77.07-1.52.13-2.28l.02-.28c0-.09.01-.18.05-.35.06-.3.11-.6.2-.89.19-.55.42-1.08.7-1.52,1.13-1.81,2.6-2.76,3.98-3.55,1.4-.76,2.81-1.26,4.2-1.67,5.57-1.48,10.87-1.47,15.81-1.19,4.95.31,9.54,1.05,13.74,1.91,8.39,1.74,15.17,3.94,19.85,5.67,4.68,1.74,7.25,3.04,7.13,3.4-.13.38-1.23.44-3.74,0-2.51-.4-6.43-1.3-12.25-2.5-5.81-1.12-13.57-2.77-23.65-3.3-2.51-.11-5.16-.11-7.91.08-2.73.22-5.62.62-8.26,1.55-1.31.45-2.56,1.09-3.37,1.8-.39.35-.65.71-.71.89-.03.05-.04.08-.03.1-.01-.05-.03.2-.04.39-.03.38-.06.76-.08,1.15-.06,3.08.57,6.36,2.19,9.41,2.19,4.29,5.89,7.66,10.03,9.89,4.15,2.26,8.75,3.42,13.2,3.88,4.47.45,8.82.17,12.85-.44,2.02-.31,3.95-.72,5.81-1.18.93-.21,1.82-.5,2.71-.73l.66-.18c.32-.1.64-.19.96-.28.67-.2,1.34-.39,1.99-.59.64-.19,1.28-.38,1.9-.56l.23-.07s.09-.05.1,0l.03.12.14.49c.09.32.19.64.26.95.34,1.2.52,2.47.61,3.69,0,.27.02.53.03.8,0,.21.01.42,0,.63-.01.41-.02.82-.04,1.22-.06.8-.1,1.56-.21,2.3-.36,2.94-1.01,5.42-1.79,7.36-.77,1.94-1.67,3.34-2.47,4.1-.36.41-.74.62-.98.76-.25.13-.41.15-.48.08h0Z"/><path class="cls-8" d="m365.83,49.36c-.21-1.42-.66-3.15-1.4-5.12-.37-.98-.81-2.03-1.32-3.12-.13-.27-.26-.55-.4-.83l-.21-.42-.27-.52c-.19-.35-.38-.7-.58-1.06l-.31-.54c-.17-.04-.39.06-.59.09-1.35.29-2.77.6-4.27.92-.59.35-.78-.41-1.11-.77-.46-.63-.93-1.28-1.42-1.93-2.02-2.62-4.29-5.42-6.94-8.26-2.66-2.82-5.69-5.7-9.19-8.42-3.51-2.7-7.48-5.3-12.02-7.32-4.52-2.04-9.56-3.6-14.95-4.31-5.39-.78-11.08-.67-16.85.05-5.76.79-11.63,2.19-17.45,4.16-2.93.95-5.83,2.08-8.75,3.26-1.46.6-2.91,1.24-4.38,1.87-1.46.71-2.92,1.42-4.39,2.13-5.81,3.04-11.47,6.91-16.36,11.9-4.82,5.02-8.88,11.12-11.37,17.97-2.53,6.83-3.63,14.26-3.47,21.68.13,7.44,1.4,14.89,3.59,22.14.47,1.56.97,3.09,1.52,4.59.25.66.49,1.31.73,1.95h-.02s-.19.08-.19.08c-.31.11-.6.24-.91.36-1.2.48-2.38,1-3.53,1.54-2.31,1.08-4.53,2.25-6.68,3.5-2.15,1.26-4.22,2.6-6.2,4.05-.99.72-1.96,1.48-2.89,2.28l-.7.6-.2.17-.31.29-.63.59-1.26,1.18-.31.3c0,.12.09.26.13.4l.31.8c1.03,2.62,2.04,5.21,3.05,7.77l.61,1.56.31.78s.02.18.11.15h.21s.42-.03.42-.03c1.04-.05,2.09-.1,3.12-.15,1.13-.07,2.26-.08,3.38-.19,2.22-.21,4.43-.38,6.57-.7,2.16-.26,4.27-.61,6.35-.97,8.32-1.45,16.06-3.48,23.28-5.67,7.23-2.2,13.94-4.61,20.21-7.06,12.54-4.91,23.29-10.01,32.56-14.84,6.15-3.2,11.62-6.3,16.53-9.26,15.69-7.08,34.66-16.3,34.66-16.3.34-2.77-.07-5.47-1.62-8.08,4.6-4.6,6.01-6.94,5.8-7.12-.05-.04-.6.44-.89.69.83-.83.45-2.74.59-3.27.09-.71.51-2.13.27-3.55h0Z"/><path class="cls-17" d="m365.89,55.5s-.6.44-.89.69c.83-.83.46-2.74.59-3.27.09-.71.51-2.13.27-3.55-.21-1.42-.66-3.15-1.4-5.12-.37-.98-.81-2.03-1.32-3.12-.13-.27-.26-.55-.4-.83l-.21-.42-.27-.52c-.19-.35-.38-.7-.58-1.06,0,0-.97.75-2.18,2-4.19,17.86-46.21,47.04-93.3,62.46-15.92,5.21-42.07,12.09-56.32,11.66l.45,1.2c1.03,2.62,2.04,5.21,3.05,7.77l.61,1.56.31.78s.02.18.11.15h.21s.42-.03.42-.03c1.04-.05,2.09-.1,3.12-.15,1.13-.07,2.26-.08,3.38-.19,2.22-.21,4.43-.38,6.57-.7,2.16-.26,4.27-.61,6.35-.97,8.32-1.45,16.06-3.48,23.28-5.67,7.23-2.2,13.94-4.61,20.21-7.06,12.54-4.91,23.29-10.01,32.56-14.84,6.15-3.2,11.62-6.3,16.53-9.26,15.69-7.08,34.66-16.3,34.66-16.3.34-2.77-.07-5.47-1.62-8.08,4.61-4.6,6.01-6.94,5.81-7.12h0Z"/><path class="cls-17" d="m323.14,64c15.58-7.81,26.36-15.79,30.83-23.97-.23-.32-.46-.62-.69-.95-2.02-2.62-4.29-5.42-6.94-8.26-2.66-2.82-5.69-5.7-9.19-8.42-3.51-2.7-7.48-5.3-12.02-7.32-4.52-2.04-9.56-3.6-14.95-4.31-5.39-.78-11.08-.67-16.85.05-1.16.16-2.32.36-3.48.57,23.65,4.59,37.13,37.78,33.3,52.6h0Z"/><path class="cls-17" d="m283.58,14l-8.65,1.96c-8.61,8.7-36.04,24.08-23.25,66.58l8.12-2.31c-10.64-27.01-.31-53.4,23.78-66.23h0Z"/><path d="m275.64,90.27c-.05-.13.72-.61,2.27-1.4,1.59-.79,3.87-1.93,6.82-3.4,5.93-3,14.57-7.45,25.2-13.6,5.33-3.04,10.62-6.27,15.58-9.35,4.95-3.11,9.52-6.13,13.39-8.82,3.83-2.74,7.02-5.07,9.1-6.9,1.09-.86,1.85-1.63,2.4-2.14.55-.5.88-.76.93-.71.18.11-.99,2.34-6.16,6.76-2.57,2.22-6.13,4.97-10.94,8.31-4.8,3.36-10.86,7.3-18.47,11.81-10.61,6.3-20.55,11.41-27.92,14.75-1.83.86-3.53,1.54-5,2.17-1.47.63-2.77,1.13-3.83,1.5-2.13.77-3.32,1.13-3.38,1h0Z"/><path d="m243.17,83.22c.05-.24.92-.25,2.56-.49,1.65-.23,4.09-.73,7.24-1.62.79-.23,1.62-.47,2.5-.73.44-.13.89-.27,1.35-.41.23-.07.46-.15.7-.22.06-.03.06-.03.09-.05l.06-.04s.02,0,.02-.02l-.05-.1c-.06-.13-.13-.26-.2-.4l-.02-.05-.07-.19-.15-.41c-.1-.27-.21-.55-.31-.83-.22-.56-.41-1.13-.59-1.72-1.54-4.7-2.55-10.37-2.51-16.7.04-6.33,1.21-12.69,3.3-18.33,2.07-5.65,5.05-10.54,8.23-14.19,3.18-3.66,6.44-6.12,8.87-7.52,1.23-.69,2.21-1.19,2.92-1.44.7-.27,1.1-.37,1.15-.27.11.2-.29.68-1.4,1.53-1.07.91-2.87,2.18-5.2,4.44-2.31,2.26-5.23,5.49-8,10.39-2.74,4.89-5.34,11.5-6.28,20.02-.64,5.93-.29,11.68.69,16.76.5,2.54,1.11,4.93,1.87,7.12.05.16.07.23.15.45l.25.64c.16.42.32.84.48,1.26.16.41.31.81.46,1.21l.03.07s-.05.02-.08.03l-.17.05-.35.09-.68.19c-2.08.58-2.73.71-3.8.96-3.96.9-7.27,1.34-9.58,1.28-2.32-.04-3.53-.55-3.48-.75h0Z"/><path d="m238.41,62.31c.07-.91.15-1.85.23-2.8.44-3.82,1.16-8.01,2.61-12.2.5-1.51,1.11-2.9,1.62-4.25.64-1.29,1.22-2.54,1.81-3.7.67-1.12,1.3-2.18,1.89-3.19.68-.95,1.33-1.85,1.93-2.7,1.57-1.98,3.03-3.59,4.36-4.88,3.89-2.88,8.05-5.26,12.28-7.21,5.52-2.55,11-4.68,16.37-6.35,5.37-1.69,10.67-2.79,15.79-3.37,5.12-.54,10.07-.45,14.71.24,4.63.72,8.95,2.02,12.87,3.73,3.91,1.73,7.42,3.85,10.57,6.11,3.15,2.26,5.94,4.67,8.42,7.08,2.49,2.4,4.69,4.78,6.65,7.07.99,1.14,1.92,2.25,2.78,3.34.32.41.65.81.96,1.21l.51.64.25.32s.04.07.07.07l.1-.03.2-.05c.94-.25,1.86-.49,2.75-.73.31-.08.62-.17.92-.25l.45-.12.19-.06.39-.12.2-.06c.07-.03.08.08.13.12.15.23.26.39.45.69.27.46.52.92.77,1.36,1.94,3.56,3,6.45,3.4,8.4.41,1.96.24,2.95.44,3,.08.02.22-.31.4-1.02.09-.71.19-1.82-.05-3.24-.21-1.42-.66-3.15-1.4-5.12-.37-.98-.81-2.03-1.32-3.12-.13-.27-.26-.55-.4-.83l-.21-.42-.27-.52c-.19-.35-.38-.7-.58-1.06l-.31-.54c-.17-.04-.39.06-.59.09-1.35.29-2.77.6-4.27.92-.59.35-.78-.41-1.11-.77-.46-.63-.93-1.28-1.42-1.93-2.02-2.62-4.29-5.42-6.94-8.26-2.66-2.82-5.69-5.7-9.19-8.42-3.51-2.7-7.48-5.3-12.02-7.32-4.52-2.04-9.56-3.6-14.95-4.31-5.39-.78-11.08-.67-16.85.05-5.76.79-11.63,2.19-17.45,4.16-2.93.95-5.83,2.08-8.75,3.26-1.46.6-2.91,1.24-4.38,1.87-1.46.71-2.92,1.42-4.39,2.13-5.81,3.04-11.47,6.91-16.36,11.9-4.82,5.02-8.88,11.12-11.37,17.97-2.53,6.83-3.63,14.26-3.47,21.68.13,7.44,1.4,14.89,3.59,22.14.47,1.56.97,3.09,1.52,4.59.25.66.49,1.31.73,1.95h-.02s-.19.08-.19.08c-.31.11-.6.24-.91.36-1.2.48-2.38,1-3.53,1.54-2.31,1.08-4.53,2.25-6.68,3.5-2.15,1.26-4.22,2.6-6.2,4.05-.99.72-1.96,1.48-2.89,2.28l-.7.6-.2.17-.31.29-.63.59-1.26,1.18-.31.3c0,.12.09.26.13.4l.31.8c1.03,2.62,2.04,5.21,3.05,7.77l.61,1.56.31.78s.02.18.11.15h.21s.42-.03.42-.03c1.04-.05,2.09-.1,3.12-.15,1.13-.07,2.26-.08,3.38-.19,2.22-.21,4.43-.38,6.57-.7,2.16-.26,4.27-.61,6.35-.97,8.32-1.45,16.06-3.48,23.28-5.67,7.23-2.2,13.94-4.61,20.21-7.06,12.54-4.91,23.29-10.01,32.56-14.84,6.15-3.2,11.62-6.3,16.53-9.26,15.69-7.08,34.66-16.3,34.66-16.3.34-2.77-.07-5.47-1.62-8.08,4.6-4.6,6.01-6.94,5.8-7.12-.22-.21-3.02,2.86-8.78,7.55l-32.14,21.36c-3.38,1.91-6.93,3.84-10.69,5.79-8.38,4.33-17.64,8.76-27.7,12.91-10.05,4.17-20.89,8.14-32.39,11.4-5.74,1.64-11.66,3.1-17.71,4.22-6.05,1.13-12.24,1.95-18.5,2.2h-.34s-.1.03-.1-.03l-.04-.12-.36-.93c-.52-1.35-1.04-2.7-1.56-4.05,0-.04-.03-.07-.03-.1l.09-.07.55-.47c.3-.25.57-.51.88-.74,1.2-.97,2.47-1.89,3.77-2.77,2.61-1.76,5.38-3.34,8.22-4.78,1.43-.71,2.87-1.38,4.33-2l1.1-.45.55-.22.72-.27c1.49-.56,3.07-1.06,4.59-1.6-.61-1.34-1.29-2.76-1.79-4.01l-.36-.88-.19-.51-.38-1.01c-.49-1.36-.96-2.73-1.37-4.13-.84-2.78-1.54-5.61-2.1-8.46-1.11-5.7-1.58-11.52-1.3-17.26.21-3.53.73-6.98,1.53-10.3.79-3.33,2.03-6.47,3.43-9.46,2.06-4.1,4.65-7.83,7.64-11.09-.66.96-1.3,1.96-1.89,3.02-2.14,3.78-3.88,8.09-5.01,12.52-1.15,4.43-1.47,8.54-1.62,12.09.02.89.03,1.75.04,2.58.01.83.02,1.62.12,2.37.17,1.51.23,2.89.48,4.1.23,1.2.44,2.27.62,3.21.24.91.48,1.67.67,2.28.39,1.22.64,1.83.75,1.8.11-.03,0-.95-.28-2.57-.07-.41-.15-.86-.24-1.34-.09-.49-.12-1.03-.2-1.61-.11-1.16-.36-2.46-.39-3.93-.08-1.46-.21-3.05-.13-4.77.03-.86,0-1.74.06-2.65h0Z"/><ellipse class="cls-11" cx="320.3" cy="35.17" rx="12.87" ry="18.04" transform="translate(38.57 191.56) rotate(-35.3)"/><ellipse class="cls-7" cx="320.3" cy="35.17" rx="9.3" ry="13.03" transform="translate(38.57 191.56) rotate(-35.3)"/><polygon class="cls-19" points="319.3 61.51 305.55 56.88 307.69 42.53 321.43 47.16 319.3 61.51"/><path d="m319.67,62.11l-14.62-4.92,2.27-15.25,14.62,4.92-2.27,15.25Zm-13.61-5.54l12.87,4.33,2-13.43-12.87-4.33-2,13.43Z"/><ellipse class="cls-9" cx="313.49" cy="52.02" rx="3.45" ry="4.12" transform="translate(18.93 171.25) rotate(-31.46)"/><path class="cls-2" d="m313.82,41.95c4.18,4.82,10.17,6.58,14.01,3.86,3.84-2.72,4.17-8.95,1.01-14.5l-15.02,10.63h0Z"/><path class="cls-3" d="m324.88,34.16c-1.78-2.05-4.32-2.8-5.96-1.64-1.63,1.16-1.77,3.81-.43,6.16l6.39-4.52h0Z"/><polygon class="cls-14" points="227.91 294.76 229.74 333.99 171.2 350.7 113.74 309.87 111.84 274.84 159.37 268.18 227.91 294.76"/><path d="m228.79,331.63c-1.09,0-1.89-5.78-1.74-15.66s1.19-20.14,2.29-20.13c1.09,0,1.92,3.72,1.71,17.9-.15,9.88-1.16,17.9-2.25,17.89h0Z"/><path d="m229.74,333.99c.13.45-4.94,2.41-14.7,5.69-4.88,1.64-10.93,3.62-18.1,5.91-3.59,1.13-7.45,2.35-11.57,3.66-4.47,1.39-9.24,2.87-14.28,4.43-7.87-5.43-16.58-11.43-26.07-17.97-9.12-6.35-18.98-13.23-29.56-20.6l-4.43-3.1c-.56-13.52-1.13-27.07-1.69-40.32,8.84-1,17.53-1.98,25.99-2.94,7.77-.85,15.31-1.68,22.54-2.47l1.4-.15.58-.07c.1,0,.2-.04.29-.01l.28.09.89.3c.85.29,1.7.58,2.55.87,1.68.59,3.34,1.17,4.98,1.74,3.27,1.16,6.45,2.32,9.52,3.45,6.14,2.28,11.86,4.51,17.07,6.62,5.22,2.1,9.92,4.11,14.04,5.93,4.12,1.83,7.66,3.46,10.53,4.87,5.75,2.79,8.84,4.6,8.73,4.83-.14.29-1.75-.12-5.45-1.51-3.71-1.36-9.53-3.67-18.19-6.93-8.66-3.26-20.17-7.49-35.28-12.57-1.89-.63-3.84-1.27-5.84-1.93-1-.32-2.02-.65-3.05-.99-.41-.13-.82-.26-1.23-.39-.31.04-.61.08-.92.12-4.44.55-9.11,1.13-14.04,1.74-9.16,1.11-19.24,2.33-30.34,3.68.13,2.86.26,5.8.39,8.83.17,3.83.34,7.78.52,11.82.1,2.35.2,4.69.31,7.02.05,1.16.1,2.32.15,3.48l.07,1.73.02.49v.03c10.37,7.33,20.34,14.37,29.72,21,4.83,3.44,9.51,6.77,14.02,9.98,2.25,1.61,4.46,3.19,6.62,4.73,1.08.77,2.15,1.54,3.2,2.29.53.38,1.05.75,1.57,1.13l.62.45.21.16c8.54-2.39,16.34-4.57,23.23-6.5,7.15-1.97,13.37-3.66,18.49-5,10.24-2.69,16.08-4.02,16.2-3.62h0Z"/><path d="m171.2,307.16c-.13-.67,7.53-2.67,20.81-5.17,13.28-2.5,27.17-4.54,27.3-3.87s-4.76,2.16-23.82,5.74c-13.28,2.5-24.16,3.98-24.28,3.31Z"/><path d="m172.04,345.58c-.68,0-1.18-5.06-1.09-13.71.09-8.65.75-17.63,1.43-17.63.68,0,1.2,3.26,1.07,15.67-.09,8.65-.72,15.67-1.41,15.66h0Z"/><path class="cls-4" d="m215.11,283.95c0-.15-.01-.31-.02-.47l-.07-.93c-.11-1.23-.34-2.46-.7-3.65-.37-1.19-.92-2.34-1.62-3.37-.73-1.01-1.61-1.87-2.55-2.56-1.91-1.33-3.91-2.01-5.72-2.49-1.82-.49-3.52-.8-5.08-1.11-1.61-.31-3.08-.62-4.41-.95.78-.89,1.49-2.08,1.88-3.6.4-1.48.36-3.23-.09-4.93-.46-1.71-1.36-3.39-2.62-4.86-2.54-3.03-6.48-4.84-10.4-5.69-3.89-.85-7.83-1.08-11.43-.31-1.79.38-3.44,1-4.91,1.83-1.45.84-2.64,1.85-3.57,2.89-1.87,2.11-2.64,4.35-2.76,5.88,0,.11,0,.2-.01.3-.25-.04-.5-.08-.76-.12-3.96-.52-8.77-.58-14.03.25-2.62.46-5.38,1.07-8.13,2.12-1.4.46-2.76,1.13-4.15,1.77-.69.35-1.35.76-2.04,1.15-.69.37-1.34.83-1.99,1.31-1.34.88-2.52,2.02-3.66,3.09-.52.58-1.03,1.16-1.54,1.73-.51.57-.93,1.22-1.38,1.82-1.73,2.47-3.11,5.1-3.88,7.82-.78,2.71-1.05,5.46-.81,8.02.33,2.57,1.19,4.87,2.35,6.73.29.46.65.86.96,1.28.33.4.61.82.99,1.13.36.32.71.64,1.05.94.17.15.34.29.5.44.18.12.36.23.54.35.72.43,1.35.89,2,1.17.65.27,1.25.5,1.78.7.52.23,1.04.29,1.46.37.43.08.8.12,1.1.14.23.02.4.01.55,0,.17.26.35.52.54.76,1.42,1.89,3.23,3.15,4.83,3.82,1.22.52,2.33.73,3.2.79.49,2.53,1.4,5.11,2.93,7.57,1.39,2.21,3.36,4.26,5.85,5.69,2.47,1.45,5.38,2.24,8.31,2.38l1.1.05h.14s.21,0,.21,0c.14,0,.28-.01.42-.03.28-.04.56-.09.83-.18,1.09-.32,2.06-1.01,2.73-1.92.68-.9,1.06-2.04,1.06-3.19-.01-.7-.02-1.41-.03-2.12-.05-2.78-.11-5.61-.17-8.49-.03-1.44-.06-2.9-.09-4.36l-.02-1.1.05-.88c.07-.58.17-1.17.35-1.74.69-2.29,2.37-4.39,4.51-6.12,2.16-1.72,4.68-3.09,7.29-4.16,2.61-1.09,5.33-1.9,8.03-2.52,2.71-.62,5.43-1.02,8.1-1.26,1.34-.11,2.66-.19,3.97-.21.66-.02,1.31-.02,1.95,0,.32,0,.65,0,.97.02l.86.04c2.36.8,4.67,1.57,6.91,2.32,1.39.47,2.75.93,4.09,1.38,1.08.38,2.11.71,3.12,1.03l.76.24c.05,0,.15.07.17.03v-.21s.03-.41.03-.41c.03-.54.06-1.08.09-1.62.05-1.09.14-2.08.11-3.19v-.59s0,0,0,0Z"/><path class="cls-1" d="m215.11,283.95c0-.15-.01-.31-.02-.47l-.07-.93c-.11-1.23-.34-2.46-.7-3.65-.37-1.19-.92-2.34-1.62-3.37-.73-1.01-1.61-1.87-2.55-2.56-1.91-1.33-3.91-2.01-5.72-2.49-1.82-.49-3.52-.8-5.08-1.11-1.61-.31-3.08-.62-4.41-.95.78-.89,1.49-2.08,1.88-3.6.4-1.48.36-3.23-.09-4.93-.46-1.71-1.36-3.39-2.62-4.86-2.54-3.03-6.48-4.84-10.4-5.69-3.89-.85-7.83-1.08-11.43-.31-1.79.38-3.44,1-4.91,1.83-1.45.84-2.64,1.85-3.57,2.89-1.87,2.11-2.64,4.35-2.76,5.88,0,.11,0,.2-.01.3-.25-.04-.5-.08-.76-.12-3.96-.52-8.77-.58-14.03.25-2.62.46-5.38,1.07-8.13,2.12-1.4.46-2.76,1.13-4.15,1.77-.69.35-1.35.76-2.04,1.15-.69.37-1.34.83-1.99,1.31-1.34.88-2.52,2.02-3.66,3.09-.52.58-1.03,1.16-1.54,1.73-.51.57-.93,1.22-1.38,1.82-1.73,2.47-3.11,5.1-3.88,7.82-.78,2.71-1.05,5.46-.81,8.02.33,2.57,1.19,4.87,2.35,6.73.29.46.65.86.96,1.28.33.4.61.82.99,1.13.36.32.71.64,1.05.94.17.15.34.29.5.44.18.12.36.23.54.35.72.43,1.35.89,2,1.17.65.27,1.25.5,1.78.7.52.23,1.04.29,1.46.37.43.08.8.12,1.1.14.23.02.4.01.55,0,.17.26.35.52.54.76,1.42,1.89,3.23,3.15,4.83,3.82,1.22.52,2.33.73,3.2.79.49,2.53,1.4,5.11,2.93,7.57,1.39,2.21,3.36,4.26,5.85,5.69,2.47,1.45,5.38,2.24,8.31,2.38l1.1.05h.14s.21,0,.21,0c.14,0,.28-.01.42-.03.28-.04.56-.09.83-.18,1.09-.32,2.06-1.01,2.73-1.92.68-.9,1.06-2.04,1.06-3.19-.01-.7-.02-1.41-.03-2.12-.05-2.78-.11-5.61-.17-8.49-.03-1.44-.06-2.9-.09-4.36l-.02-1.1.05-.88c.07-.58.17-1.17.35-1.74.69-2.29,2.37-4.39,4.51-6.12,2.16-1.72,4.68-3.09,7.29-4.16,2.61-1.09,5.33-1.9,8.03-2.52,2.71-.62,5.43-1.02,8.1-1.26,1.34-.11,2.66-.19,3.97-.21.66-.02,1.31-.02,1.95,0,.32,0,.65,0,.97.02l.86.04c2.36.8,4.67,1.57,6.91,2.32,1.39.47,2.75.93,4.09,1.38,1.08.38,2.11.71,3.12,1.03l.76.24c.05,0,.15.07.17.03v-.21s.03-.41.03-.41c.03-.54.06-1.08.09-1.62.05-1.09.14-2.08.11-3.19v-.59s0,0,0,0Zm-3.7.35c-.01.07-.02.19-.04.27.04.29-.24.07-.39.02l-.06-.03h-.03s-.2-.09-.2-.09l-.87-.32c-.58-.21-1.17-.43-1.76-.65-1.18-.43-2.38-.87-3.6-1.32-.61-.22-1.22-.45-1.84-.67l-.93-.34-.49-.18c-.3-.11-.6-.23-.91-.22l-1.14-.07c-.35-.03-.69-.04-1.04-.05-.7-.03-1.4-.04-2.11-.04-1.41,0-2.84.06-4.27.15-2.87.22-5.79.6-8.72,1.24-2.93.64-5.88,1.49-8.79,2.68-2.91,1.19-5.79,2.71-8.42,4.81-2.6,2.1-4.95,4.89-5.99,8.36-.26.86-.42,1.74-.51,2.63-.02.45-.05.92-.06,1.34l.03,1.11c.04,1.47.09,2.93.13,4.38.09,2.89.19,5.74.28,8.52.02.68.04,1.35.07,2.03,0,.23-.06.46-.19.65-.13.19-.32.33-.52.4-.05.02-.1.03-.15.04-.03,0-.05,0-.08,0h-.04s-.11,0-.11,0l-.89-.02c-2.37-.07-4.6-.63-6.51-1.67-1.92-1.03-3.49-2.55-4.68-4.29-2.38-3.51-3.29-7.7-3.31-11.44,0-1.88.2-3.68.55-5.35.36-1.67.91-3.18,1.51-4.56,1.28-2.71,2.94-4.76,4.56-6.13,1.62-1.38,3.17-2.07,4.2-2.6,1.07-.42,1.65-.71,1.62-.87-.03-.15-.66-.16-1.89,0-1.18.27-2.99.74-4.99,2.06-1.99,1.3-4.1,3.44-5.77,6.39-.8,1.49-1.53,3.16-2.05,5.01-.51,1.85-.85,3.86-.96,5.99-.05,1.2-.01,2.45.11,3.73-.47-.27-.98-.59-1.51-.97-1.11-.83-2.27-1.95-3.19-3.46-.92-1.5-1.62-3.37-1.91-5.43-.61-4.11.64-7.99,1.75-10.7,1.14-2.72,2.09-4.44,1.65-4.81-.39-.34-2.14.75-4.1,3.44-.96,1.35-1.94,3.1-2.61,5.26-.68,2.14-1.02,4.73-.62,7.38.24,1.71.77,3.33,1.49,4.77-.08-.06-.16-.11-.25-.17-.34-.22-.76-.42-1.15-.76-.41-.31-.87-.65-1.37-1-.49-.36-.93-.86-1.46-1.31-.13-.12-.26-.23-.39-.36-.11-.14-.22-.28-.34-.42-.23-.28-.47-.57-.71-.87-.27-.27-.42-.65-.64-.98-.19-.35-.43-.68-.61-1.06-.69-1.52-1.14-3.28-1.24-5.23-.01-1.96.34-4.08,1.07-6.22.72-2.15,1.95-4.26,3.43-6.28.4-.49.74-1.02,1.19-1.49.43-.47.87-.95,1.31-1.43.95-.85,1.86-1.75,2.99-2.48.53-.39,1.06-.78,1.66-1.1.58-.33,1.13-.68,1.72-.99,1.2-.56,2.35-1.17,3.58-1.6,2.4-.98,4.86-1.63,7.21-2.17,4.74-1.01,9.17-1.32,12.87-1.3,7.45.02,11.93,1.54,12.25.8.07-.17-.14-.43-.62-.79-.49-.33-1.21-.86-2.25-1.28-1.54-.73-3.72-1.44-6.42-1.97.66-1.09,1.65-2.52,3.39-3.84.84-.63,1.84-1.22,2.95-1.69,1.11-.44,2.41-.79,3.81-.96,2.79-.37,6.07-.07,9.45.67,3.33.73,6.17,2,7.98,3.83,1.88,1.83,2.72,4.1,2.62,5.92-.06,1.37-.53,2.54-1.06,3.42-.18-.06-.38-.11-.55-.17-4.12-1.45-6.08-3.04-6.32-2.74-.17.16,1.44,2.29,5.64,4.37,2.08,1.02,4.78,1.94,7.88,2.77,1.54.43,3.19.85,4.83,1.4,1.65.54,3.28,1.25,4.63,2.3.65.54,1.22,1.16,1.69,1.88.44.74.8,1.56,1.04,2.47.23.92.38,1.9.43,2.95l.03.79c0,.13.01.26,0,.4,0,.13,0,.31,0,.28h0Z"/><path class="cls-13" d="m204.17,384.5c7.16-8.73-5.89-14.17-17.62-11.05-3.84-9.46-22.48-9.52-29.87-2.3-8.75-5.77-25.44.19-23.99,9.57-7.68,6.01-4.08,13.84,5.63,11.82,3.51,6.87,19.34,11.74,26.16,7.08,1.56,3.16,10.63,5.59,14.48,1.1,13.52,6,26.25-6.96,22.43-16.65l2.78.43h0Z"/><path class="cls-10" d="m192.64,372.58c.28,9.01-11.09,18.64-23.1,13.31-3.85,4.49-12.92,2.06-14.48-1.1-5.55,3.79-17.07,1.27-23.05-3.5-6.76,5.92-3.09,13.21,6.32,11.25,3.51,6.87,19.34,11.74,26.16,7.08,1.56,3.16,10.63,5.59,14.48,1.1,13.52,6,26.25-6.96,22.43-16.65l2.78.43c5.92-7.22-1.99-12.19-11.53-11.92h0Z"/><path class="cls-14" d="m287.28,401.01c-11.79-5.5-82.15-15.88-82.15-15.88,0,0-1.02-.38-.89-.27l-.3-.24c-.52-.08-1.04-.17-1.56-.25-.1-.23-.2-.46-.31-.66-.09-.17-.19-.31-.28-.46-.57-.09-1.14-.17-1.72-.26.18.4.36.84.52,1.35.37,1.15.58,2.63.35,4.32-.25,1.68-.94,3.56-2.23,5.35-1.27,1.79-3.11,3.49-5.43,4.69-2.31,1.22-5.11,1.91-8.03,1.64-.37-.01-.73-.08-1.1-.14-.37-.04-.74-.13-1.1-.22-.37-.08-.74-.17-1.12-.32-.44-.16-.59-.17-1.49-.55l-1.12-.46c-.37-.12-.78-.48-1.05-.03l-.9.8-.46.42-.12.11s-.21.14-.17.12l-.09.06c-.47.35-1.11.55-1.77.73-1.37.27-3,.21-4.55-.23-.78-.2-1.52-.53-2.17-.88l-.45-.28-.51-.42c-.33-.37-.63-.83-.94-1.25l-.87-1.2c-.69.37-1.39.75-2.09,1.12l-1.07.57-.6.2c-.58.25-1.3.31-1.97.46-1.43.12-2.94.16-4.51-.06-3.11-.37-6.34-1.44-9.21-2.98-1.43-.8-2.71-1.73-3.77-2.83l-.38-.45-.19-.23c-.07-.08-.11-.11-.26-.36l-.76-1.19-.38-.6-.19-.3c-.07-.08-.1-.26-.24-.19-.9.14-1.81.27-2.72.41l-.34.05c-.12.02-.24.04-.26.03h-.28s-.56.02-.56.02c-1.45,0-2.81-.37-3.41-1-.35-.28-.45-.64-.58-1,0-.21-.08-.4-.01-.66.03-.12-.01-.24.04-.37.05-.13.09-.27.12-.41.16-.46.4-.96.76-1.43l.25-.37.32-.35.31-.35.15-.18.38-.33,1.55-1.36.19-.17.1-.08s0-.1,0-.14l-.04-.6-.09-1.2c-.05-.57,0-.54-.01-.69-.01-.12.03-.24.04-.36.01-.24.11-.48.15-.72.43-1.39,1.64-2.73,3.17-3.79-37.65-4.74-67.43-7.92-67.43-7.92l-44.52,19.77,1.62,43.58,212.68,44.63,47.75-28.3-1.7-45.43h0Z"/><polygon class="cls-12" points="290.84 447.83 241.23 474.73 239.84 427.47 288.97 403.19 290.84 447.83"/><path class="cls-18" d="m134.83,450.97l106.39,23.76-1.39-46.79-30.91-5.13c2.39,17.78-59.75,13.88-74.1,28.16h0Z"/><path class="cls-18" d="m39.75,432.25l95.08,19.63-1.39-45.21-13.53-2.17c-14.1,17.35-65.82,13.96-80.17,27.75h0Z"/><path class="cls-1" d="m279.54,396.94c-7.95-1.38-19.44-3.36-33.62-5.71-12.03-2-26-4.28-41.36-6.73.29-.19.71-.57,1.22-1.21.39-.56.88-1.3,1.17-2.36.29-1.04.29-2.45-.32-3.82-.62-1.36-1.76-2.57-3.16-3.47-1.4-.93-3.06-1.6-4.88-2.09-1.82-.46-3.81-.75-5.93-.76-1.06-.02-2.15.04-3.26.16-.42.05-.85.11-1.28.16-.28.03-.38.07-.54.06-.06-.18-.13-.35-.22-.52-.21-.29-.42-.59-.63-.88-.23-.29-.48-.57-.73-.85-1.03-1.09-2.25-1.99-3.57-2.71-2.64-1.43-5.61-2.19-8.68-2.48-3.08-.27-6.28-.08-9.52.71-1.62.4-3.24.95-4.83,1.72-.8.39-1.59.82-2.35,1.34l-.69.47c-.06-.04.01-.04-.54-.28-.8-.35-1.62-.64-2.45-.86-1.66-.45-3.37-.65-5.07-.67-3.41-.02-6.82.68-10.06,2.19-1.61.76-3.19,1.73-4.61,3.06-.59.54-1.15,1.18-1.66,1.86-9.99-1.48-19.75-2.92-29.19-4.32-10.85-1.54-21.3-3.02-31.2-4.42-8.63,3.68-16.82,7.17-24.48,10.43-7.89,3.41-15.23,6.58-21.93,9.47.1,2.18.2,4.31.29,6.39.08,1.63.17,3.22.25,4.76.17,3.09.33,6,.48,8.72.31,5.44.61,10.13.9,13.95.57,7.65,1.06,11.87,1.44,11.85.39-.01.62-4.25.73-11.92.05-3.83.07-8.53.06-13.98-.03-5.05-.06-10.8-.1-17.16l.38-.13.18-.06.61-.24c.82-.32,1.65-.65,2.49-.98,1.67-.66,3.39-1.34,5.13-2.03,3.49-1.39,7.13-2.84,10.89-4.34,7.31-2.94,15.13-6.08,23.36-9.4,17.66,2.7,37.12,5.68,57.56,8.8-.01.11-.03.21-.03.32,0,.18-.01.44-.01.53l-.33.28-.08.07-.25.28-.5.56-.5.56c-.15.2-.3.43-.45.64-.61.83-1.12,1.82-1.49,2.9-.21.67-.4,1.34-.43,2.1-.11.72,0,1.51.11,2.26.35,1.51,1.12,3,2.26,4,.26.29.56.48.86.69.3.2.6.42.91.58.62.26,1.26.62,1.88.75,1.26.37,2.49.5,3.67.48l.87-.03.44-.02c.1,0,.09,0,.09,0h.01s.1-.02.1-.02c.01,0,0,0,.02,0l.98,1.11c1.34,1.37,2.86,2.46,4.4,3.36-3.06,1.47-6.37,3.13-10.13,5.06-26.93-5.69-51.36-10.31-69.34-13.2-9.41-1.5-17.03-2.63-22.33-3.27-5.29-.66-8.23-.89-8.28-.62-.04.27,2.81,1.02,8.02,2.15,5.21,1.11,12.75,2.66,22.08,4.51,18.24,3.65,43.23,8.83,70.88,14.72.11,13.11-.29,26.13-.83,39.29-13.39-3.16-26.22-6.05-37.98-8.47-12.44-2.6-23.72-4.61-33.2-6.19-9.5-1.51-17.2-2.61-22.55-3.16-5.35-.58-8.34-.71-8.4-.33-.06.39,2.8,1.26,8.02,2.5,5.23,1.21,12.81,2.91,22.17,4.92,9.35,2.08,20.5,4.49,32.83,7.36,12.34,2.83,25.89,6.06,40.13,9.43,14.24,3.37,27.86,6.48,40.3,9.07,12.43,2.63,23.7,4.68,33.17,6.3,9.49,1.55,17.18,2.68,22.54,3.26,5.35.6,8.33.75,8.4.36.07-.39-2.79-1.27-8.01-2.54-5.23-1.24-12.79-2.97-22.15-5.02-9.35-2.12-20.48-4.57-32.81-7.47-12.02-2.84-25.2-5.96-39.03-9.23-.09-13.25-.11-26.35.18-39.51,17.03,3.6,34.07,7.2,51.16,10.56,16.77,3.31,33.59,6.4,50.43,9.31.1,2.36.2,4.69.3,6.95.16,3,.31,5.89.45,8.64.31,5.49.64,10.4.97,14.51.65,8.21,1.31,13.21,1.82,13.19.51-.02.8-5.05.85-13.29.03-4.12,0-9.04-.1-14.54-.06-2.75-.12-5.64-.18-8.65-.07-2.6-.15-5.31-.22-8.09,0,0,0,0,.02,0l1.14-.59c.77-.39,1.54-.79,2.31-1.19l41.17-21.19v38.38l-.89.54c-22.88,13.85-40.76,26.17-39.95,27.51.81,1.34,20.02-8.8,42.89-22.65l3.63-2.2v-47.84l.05-.27s-4.41-.77-12.36-2.17h0Zm-137.94-4.56l-.19-.23c-.07-.08-.11-.11-.26-.36l-.76-1.19-.38-.6-.19-.3c-.07-.08-.1-.26-.24-.19-.9.14-1.81.27-2.72.41l-.34.05c-.12.02-.24.04-.26.03h-.28s-.56.02-.56.02c-1.45,0-2.81-.37-3.41-1-.35-.28-.45-.64-.58-1,0-.21-.08-.4-.01-.66.03-.12-.01-.24.04-.37.05-.13.09-.27.12-.41.16-.46.4-.96.76-1.43l.25-.37.32-.35.31-.35.15-.18.38-.33,1.55-1.36.19-.17.1-.08s0-.1,0-.14l-.04-.6-.09-1.2c-.05-.57,0-.54-.01-.69-.01-.12.03-.24.04-.36.01-.24.11-.48.15-.72.59-1.92,2.64-3.74,5.01-4.86,2.38-1.15,5.08-1.75,7.65-1.77,1.29-.01,2.55.12,3.72.41.59.14,1.15.33,1.69.55.77.36,2.1,1.13,3.28,1.84.57-.51,1.18-1.1,1.7-1.54.5-.43,1.15-1,1.31-1.07.53-.39,1.11-.72,1.71-1.03,1.19-.62,2.48-1.11,3.79-1.47,2.63-.73,5.34-.99,7.91-.86,2.56.13,5,.67,7.01,1.65,1,.49,1.89,1.08,2.61,1.77l.51.53c.15.21.29.34.47.6.25.46.5.92.75,1.38.23.46.45.93.68,1.38,4.22-1.1,5.3-1.24,7.3-1.38,1.84-.12,3.59,0,5.18.25,3.16.53,5.73,1.83,6.77,3.5.51.82.68,1.7.62,2.51-.06.81-.32,1.52-.51,2.09-.34.85-.62,1.41-.67,1.69,0,0-1.3-.2-1.82-.29-.1-.23-.2-.46-.31-.66-.68-1.26-1.45-2.03-1.99-2.49-.57-.44-.91-.6-1.01-.51s.04.46.37,1.03c.31.59.79,1.44,1.15,2.6.37,1.15.58,2.63.35,4.32-.25,1.68-.94,3.56-2.23,5.35-1.27,1.79-3.11,3.49-5.43,4.69-2.31,1.22-5.11,1.91-8.03,1.64-.37-.01-.73-.08-1.1-.14-.37-.04-.74-.13-1.1-.22-.37-.08-.74-.17-1.12-.32-.44-.16-.59-.17-1.49-.55l-1.12-.46c-.37-.12-.78-.48-1.05-.03l-.9.8-.46.42-.12.11s-.21.14-.17.12l-.09.06c-.47.35-1.11.55-1.77.73-1.37.27-3,.21-4.55-.23-.78-.2-1.52-.53-2.17-.88l-.45-.28-.51-.42c-.33-.37-.63-.83-.94-1.25l-.87-1.2c-.69.37-1.39.75-2.09,1.12l-1.07.57-.6.2c-.58.25-1.3.31-1.97.46-1.43.12-2.94.16-4.51-.06-3.11-.37-6.34-1.44-9.21-2.98-1.43-.8-2.71-1.73-3.77-2.83l-.38-.45h0Zm101.59,30.91c-1.72.89-3.42,1.77-5.1,2.64-16.74-2.89-33.44-5.96-50.1-9.25-17.11-3.37-34.17-6.96-51.24-10.58,3.55-1.41,6.82-2.72,9.92-3.98.65.25,1.31.48,1.98.67.93.32,1.9.49,2.83.73.96.16,1.91.36,2.88.44,1.92.23,3.89.17,5.85-.07.99-.22,1.97-.36,2.95-.77l.37-.13.18-.07.09-.03.05-.02h.02s.01-.01.01-.01c.03,0,0,0-.13.04.02,0,.03-.02.05-.03.03-.02.07-.06.11-.07.03.03.06.06.1.09-.03-.02-.08-.05-.04-.03l.1.08.21.16c.14.1.28.22.42.31l.84.49c1.12.58,2.24,1,3.38,1.26,2.26.54,4.58.6,6.88.04,1.14-.34,2.29-.77,3.28-1.53l.19-.14c.08-.05-.09.05-.04.02h.01s.03-.04.05-.06l.09-.11c.06-.08.16.02.25.02.35.1.69.19,1.03.29.45.14.93.24,1.41.32.48.1.96.18,1.44.22.48.05.95.11,1.43.1,3.81.14,7.34-.97,10.08-2.67,2.77-1.69,4.83-3.92,6.18-6.23,1.12-1.89,1.73-3.85,1.93-5.65,12.7,1.94,24.89,3.8,35.92,5.52,15.19,2.4,28.21,4.45,37.44,5.91,2.8.45,5.25.85,7.31,1.18l-40.62,20.91h0Z"/><ellipse cx="150.34" cy="381.58" rx="2.54" ry="1.68"/><ellipse cx="187.99" cy="383.09" rx="1.78" ry="1.18" transform="translate(-166.36 145.32) rotate(-30)"/><ellipse cx="167.05" cy="390.77" rx="2.86" ry="2.41"/><ellipse cx="160.98" cy="393.18" rx="1.34" ry=".89"/><path class="cls-6" d="m389.49,151.21c35.67-44.01,49.13,26.04-.54,22.83"/><path d="m388.93,174.39c-.02.35.88.74,2.7,1.08,1.82.31,4.56.52,8.16.13,3.56-.46,8.09-1.51,12.65-4.5,1.15-.72,2.24-1.61,3.34-2.58,1.07-1,2.11-2.11,3.06-3.35,1.88-2.5,3.46-5.49,4.33-8.89.88-3.39,1.06-7.02.31-10.51-.39-1.74-1.01-3.46-1.94-5.03-.92-1.57-2.15-3.01-3.68-4.07-1.52-1.07-3.29-1.74-5.03-1.98-1.75-.23-3.44-.07-4.95.32-3.05.78-5.51,2.23-7.55,3.74-4.08,3.05-6.7,6.3-8.4,8.62-.84,1.17-1.44,2.14-1.79,2.84-.36.7-.48,1.12-.34,1.23.28.22.92-.02,2.06-.93,1.16-.89,2.82-2.45,5.37-4.58,1.28-1.04,2.78-2.25,4.59-3.42,1.8-1.15,3.95-2.35,6.38-2.94,2.42-.6,5.07-.47,7.13,1.3,2.09,1.73,3.5,5.17,3.52,9.11.02,2.75-.57,5.48-1.58,7.93-1.03,2.45-2.45,4.64-4.14,6.45-3.35,3.67-7.59,5.79-11.3,7.03-3.74,1.27-7.01,1.69-9.27,2.05-2.27.34-3.57.55-3.59.93h0Z"/><path class="cls-15" d="m394.88,159.41c1.53-7.41,19.7-14.61,19.3-4.41-.63,3.19-10.13,5.47-12.07,6.14-1.03-3.1-4.19-3.29-7.23-1.74Z"/><path d="m398.88,164.52c-.07.17.2.54.99.68.75.1,2.04-.09,3.07-1.39.51-.61.86-1.72.67-2.76-.18-1.07-.84-2.07-1.72-2.75-.44-.34-.94-.63-1.5-.84-.28-.1-.57-.19-.88-.25-.15-.03-.31-.05-.47-.07-.08-.01-.15-.01-.23-.02h-.11s-.05-.01-.01,0h0s-.01-.04,0-.05c.02-.01,0,0-.03,0-.01,0-.03,0-.04-.02,0,0,0-.02,0-.03v-.02s-.02.01.13-.13c.87-.83,1.84-1.56,2.8-2.26,1.94-1.36,3.92-2.43,5.69-3.2,3.54-1.61,6.27-1.63,6.34-2.14.03-.23-.2-.47-.85-.7-.33-.13-.75-.22-1.29-.26-.55-.07-1.2-.06-1.97,0-1.54.14-3.57.57-5.99,1.62-1.22.51-2.52,1.21-3.91,2.08-.69.45-1.4.94-2.11,1.52-.37.27-.7.58-1.09.92-.7.56-1.23,1.24-1.81,1.88l-.49.55-.24.27-.16.26c-.21.35-.42.69-.63,1.03-.44.69-.7,1.31-1.04,1.94-.18.36-.36.71-.54,1.06l-.25.5-.05.15c-.07.23-.16.52-.46,1.22,1.47-.68,2.92-1.35,4.34-2.01,1.31-.61,2.25-.97,3.05-1.07.18-.03.45-.06.54-.05.08,0,.16,0,.22,0,.13,0,.27.01.41.04.28.05.55.13.79.25,1.01.48,1.42,1.32,1.21,2.03-.22.77-.9,1.32-1.4,1.53-.51.25-.92.27-.98.46h0Z"/><path class="cls-5" d="m300.66,163.65c-44.63-14.36-62.38-7.26-63.04-1.27-2.06,18.64,20.25,36.47,54.32,23.02,1.62,4.24.76,16.8-3.45,20.74"/><path class="cls-6" d="m293.26,183.31c-6.34,6.47-15.54,8.02-28.97,6.36-26.38-3.26-25.42-24.01-24.67-25.07,16.03,25.93,52.19,12.68,53.64,18.7h0Z"/><path d="m288.21,205.86c-.14-.15-.02-.57.28-1.2.24-.7.67-1.64,1-3.05.34-1.39.67-3.17.84-5.32.1-1.07.13-2.24.14-3.48-.02-.62-.01-1.26-.06-1.91-.02-.32-.05-.65-.07-.99l-.06-.49c-.01-.08-.02-.09-.03-.14-.04-.15-.09-.28-.15-.39-.03-.04-.05-.13-.1-.13l-.21.12-.18.11-.08.05c.12-.03-.24.09-.42.16-.85.3-1.73.6-2.62.91-3.61,1.15-7.67,2.14-12.17,2.63-2.26.2-4.61.36-7.06.25-1.22,0-2.47-.16-3.74-.26-1.26-.19-2.55-.34-3.84-.64-5.16-1.07-10.59-3.26-15.28-7.18-4.66-3.89-8.22-9.43-9.29-15.53-.12-.76-.26-1.52-.3-2.29l-.09-1.15v-1.15c-.02-.77.07-1.52.13-2.28l.02-.28c0-.09.01-.18.05-.35.06-.3.11-.6.2-.89.19-.55.42-1.08.7-1.52,1.13-1.81,2.6-2.76,3.98-3.55,1.4-.76,2.81-1.26,4.2-1.67,5.57-1.48,10.87-1.47,15.81-1.19,4.95.31,9.54,1.05,13.74,1.91,8.39,1.74,15.17,3.94,19.85,5.67,4.68,1.74,7.25,3.04,7.13,3.4-.13.38-1.23.44-3.74,0-2.51-.4-6.43-1.3-12.25-2.5-5.81-1.12-13.57-2.77-23.65-3.3-2.51-.11-5.16-.11-7.91.08-2.73.22-5.62.62-8.26,1.55-1.31.45-2.56,1.09-3.37,1.8-.39.35-.65.71-.71.89-.03.05-.04.08-.03.1-.01-.05-.03.2-.04.39-.03.38-.06.76-.08,1.15-.06,3.08.57,6.36,2.19,9.41,2.19,4.29,5.89,7.66,10.03,9.89,4.15,2.26,8.75,3.42,13.2,3.88,4.47.45,8.82.17,12.85-.44,2.02-.31,3.95-.72,5.81-1.18.93-.21,1.82-.5,2.71-.73l.66-.18c.32-.1.64-.19.96-.28.67-.2,1.34-.39,1.99-.59.64-.19,1.28-.38,1.9-.56l.23-.07s.09-.05.1,0l.03.12.14.49c.09.32.19.64.26.95.34,1.2.52,2.47.61,3.69,0,.27.02.53.03.8,0,.21.01.42,0,.63-.01.41-.02.82-.04,1.22-.06.8-.1,1.56-.21,2.3-.36,2.94-1.01,5.42-1.79,7.36-.77,1.94-1.67,3.34-2.47,4.1-.36.41-.74.62-.98.76-.25.13-.41.15-.48.08h0Z"/><path class="cls-4" d="m528.5,312.77c-.16-1.34-.45-2.67-.8-3.98-.35-1.28-.78-2.65-1.38-3.96-.59-1.3-1.27-2.5-2.09-3.58-.83-1.07-1.79-2.08-3.17-2.77-.68-.34-1.52-.58-2.38-.55-.86.02-1.66.3-2.27.67-1.19.77-1.74,1.66-2.16,2.4-.78,1.51-.96,2.67-1.03,3.48,0,.06,0,.1,0,.15-4.6.78-9.84,1.72-13.77,2.61l-.05.25c-.02-.06-.02-.13-.04-.19-.27-1.12-.89-2.23-1.69-3.28-.43-.48-.87-1.03-1.4-1.45-.26-.22-.53-.45-.8-.68-.28-.21-.57-.39-.87-.59-.3-.19-.6-.4-.91-.58-.32-.16-.64-.33-.96-.5-.65-.36-1.33-.63-2.02-.89-.35-.13-.7-.27-1.06-.4-.36-.11-.72-.21-1.09-.32-.73-.21-1.48-.44-2.22-.58-4.27-.95-8.02-1.22-11.18-.55-3.15.58-5.64,2.5-6.5,4.42-.92,1.9-.72,3.29-.56,4.05,0,0,0,.01,0,.02-.3,0-.61,0-.93,0-.88.1-1.82.12-2.81.37-1.96.39-4.21,1.19-6.15,2.84-2.4,1.98-3.78,5.03-4.16,7.91-.38,2.74-.1,6.15.39,8.79-3.1,1.7-6.14,3.8-8.86,6.01-.04-.04-.07-.08-.1-.11-.46-.39-1.04-.84-1.86-1-.8-.19-1.81-.04-2.63.5-.83.53-1.46,1.37-1.87,2.34-.12.24-.18.5-.26.76-.09.26-.14.53-.17.8l-.03.21v.05s0-.03,0-.01v.04c-.02.05-.02.1-.02.15-.02.09.03.22-.11.22l-.3.09-.07.02-.18.07-.37.13c-.49.18-.99.37-1.5.56-1.02.39-2.08.8-3.18,1.22-2.19.88-4.54,1.83-6.97,3.14-1.21.67-2.47,1.41-3.65,2.54-.58.56-1.16,1.23-1.59,2.06-.43.82-.69,1.76-.76,2.66-.04.54-.02,1.05.02,1.56l-23.15-5.03-.84.62c-5.79,4.28-14.24,9.73-23.18,15.51-31.13,20.11-49.83,32.89-46.99,40.91,1.12,3.17,5.76,4.61,14.18,4.61,13.34,0,36.17-3.63,69.53-9.77,7.78-1.43,14.49-2.67,19.78-3.53l1.32-.22,14.11-37.73-8.24-1.79c1.52-1.2,3.01-2,4.13-2.6,1.23-.67,2.12-1.1,2.67-1.44.09-.06.15-.11.23-.16.78,1.09,1.86,2.2,3.54,2.75.93.29,2.03.3,2.97-.06.94-.36,1.62-1.01,2.06-1.63.77-1.17.95-2.22.99-3.04,1.38.06,2.77-.01,4.46-.2,1,2.83,2.48,5.57,4.64,7.8,2.25,2.35,5.24,4.18,8.62,4.74,2.76.49,5.57-.09,7.69-1.29,2.15-1.19,3.55-2.93,4.4-4.44.44-.84.74-1.6.95-2.29.37.04.83.07,1.38.08.4,0,.84.01,1.33,0,.48-.06,1.01-.12,1.56-.19.57-.08,1.17-.17,1.81-.27.63-.17,1.29-.34,1.98-.53.35-.1.71-.2,1.07-.3.36-.11.72-.28,1.09-.42.73-.32,1.52-.58,2.28-.99.75-.42,1.55-.84,2.34-1.32.75-.54,1.55-1.08,2.32-1.69,1.48-1.29,2.99-2.76,4.21-4.56,1.29-1.75,2.29-3.81,3.01-6.04.12-.4.24-.8.35-1.2.11-.4.16-.81.24-1.21.07-.4.16-.79.2-1.19.03-.4.06-.8.08-1.19.09-.78-.03-1.58-.06-2.34-.11-.75-.26-1.57-.45-2.22,3.82-2.01,7.67-4.19,11.58-6.55.1.08.19.15.31.23.53.33,1.19.71,2.08.99.45.13.95.25,1.53.27.57.03,1.27-.06,1.96-.39.69-.33,1.32-.94,1.7-1.61.4-.68.61-1.39.74-2.08.25-1.39.19-2.75.03-4.09h0Z"/><path d="m375.62,380.68c-.26-.65,5.67-3.56,16.17-7.63,10.5-4.07,21.6-7.77,21.85-7.12.26.65-3.49,2.71-18.55,8.55-10.5,4.07-19.22,6.85-19.47,6.19h0Z"/><path d="m528.5,312.77c-.16-1.34-.45-2.67-.8-3.98-.35-1.28-.78-2.65-1.38-3.96-.59-1.3-1.27-2.5-2.09-3.58-.83-1.07-1.79-2.08-3.17-2.77-.68-.34-1.52-.58-2.38-.55-.86.02-1.66.3-2.27.67-1.19.77-1.74,1.66-2.16,2.4-.78,1.51-.96,2.67-1.03,3.48,0,.06,0,.1,0,.15-4.6.78-9.84,1.72-13.77,2.61l-.05.25c-.02-.06-.02-.13-.04-.19-.27-1.12-.89-2.23-1.69-3.28-.43-.48-.87-1.03-1.4-1.45-.26-.22-.53-.45-.8-.68-.28-.21-.57-.39-.87-.59-.3-.19-.6-.4-.91-.58-.32-.16-.64-.33-.96-.5-.65-.36-1.33-.63-2.02-.89-.35-.13-.7-.27-1.06-.4-.36-.11-.72-.21-1.09-.32-.73-.21-1.48-.44-2.22-.58-4.27-.95-8.02-1.22-11.18-.55-3.15.58-5.64,2.5-6.5,4.42-.92,1.9-.72,3.29-.56,4.05,0,0,0,.01,0,.02-.3,0-.61,0-.93,0-.88.1-1.82.12-2.81.37-1.96.39-4.21,1.19-6.15,2.84-2.4,1.98-3.78,5.03-4.16,7.91-.38,2.74-.1,6.15.39,8.79-3.1,1.7-6.14,3.8-8.86,6.01-.04-.04-.07-.08-.1-.11-.46-.39-1.04-.84-1.86-1-.8-.19-1.81-.04-2.63.5-.83.53-1.46,1.37-1.87,2.34-.12.24-.18.5-.26.76-.09.26-.14.53-.17.8l-.03.21v.05s0-.03,0-.01v.04c-.02.05-.02.1-.02.15-.02.09.03.22-.11.22l-.3.09-.07.02-.18.07-.37.13c-.49.18-.99.37-1.5.56-1.02.39-2.08.8-3.18,1.22-2.19.88-4.54,1.83-6.97,3.14-1.21.67-2.47,1.41-3.65,2.54-.58.56-1.16,1.23-1.59,2.06-.43.82-.69,1.76-.76,2.66-.04.54-.02,1.05.02,1.56l-23.15-5.03-.84.62c-5.79,4.28-14.24,9.73-23.18,15.51-31.13,20.11-49.83,32.89-46.99,40.91,1.12,3.17,5.76,4.61,14.18,4.61,13.34,0,36.17-3.63,69.53-9.77,7.78-1.43,14.49-2.67,19.78-3.53l1.32-.22,14.11-37.73-8.24-1.79c1.52-1.2,3.01-2,4.13-2.6,1.23-.67,2.12-1.1,2.67-1.44.09-.06.15-.11.23-.16.78,1.09,1.86,2.2,3.54,2.75.93.29,2.03.3,2.97-.06.94-.36,1.62-1.01,2.06-1.63.77-1.17.95-2.22.99-3.04,1.38.06,2.77-.01,4.46-.2,1,2.83,2.48,5.57,4.64,7.8,2.25,2.35,5.24,4.18,8.62,4.74,2.76.49,5.57-.09,7.69-1.29,2.15-1.19,3.55-2.93,4.4-4.44.44-.84.74-1.6.95-2.29.37.04.83.07,1.38.08.4,0,.84.01,1.33,0,.48-.06,1.01-.12,1.56-.19.57-.08,1.17-.17,1.81-.27.63-.17,1.29-.34,1.98-.53.35-.1.71-.2,1.07-.3.36-.11.72-.28,1.09-.42.73-.32,1.52-.58,2.28-.99.75-.42,1.55-.84,2.34-1.32.75-.54,1.55-1.08,2.32-1.69,1.48-1.29,2.99-2.76,4.21-4.56,1.29-1.75,2.29-3.81,3.01-6.04.12-.4.24-.8.35-1.2.11-.4.16-.81.24-1.21.07-.4.16-.79.2-1.19.03-.4.06-.8.08-1.19.09-.78-.03-1.58-.06-2.34-.11-.75-.26-1.57-.45-2.22,3.82-2.01,7.67-4.19,11.58-6.55.1.08.19.15.31.23.53.33,1.19.71,2.08.99.45.13.95.25,1.53.27.57.03,1.27-.06,1.96-.39.69-.33,1.32-.94,1.7-1.61.4-.68.61-1.39.74-2.08.25-1.39.19-2.75.03-4.09h0Zm-89.95,45.83l-11.31,30.24c-5.11.85-11.38,2.01-18.55,3.33-15.63,2.88-35.09,6.46-50.81,8.37-25.11,3.04-27.53.14-27.73-.22-.11-.33-.58-3.33,12.9-13.62,8.94-6.82,20.78-14.47,32.24-21.87,8.58-5.54,16.72-10.8,22.58-15.05l23.38,5.08c.07.19.13.39.2.59l.36.94v.02s0,0,0,0h-.02c-.28.25-.55.49-.82.72-.56.49-1.09.99-1.62,1.51-.26.26-.52.53-.77.79l-.2.22-.34.38c-.23.25-.43.52-.63.78-.38.53-.69,1.06-.82,1.56-.16.51-.08.93.03,1.43.2.3.34.55.52.78.21.21.48.38.79.52.62.29,1.48.37,2.26.45l.57.03h.27s.17.02.17.02h.65c.43,0,.85-.02,1.26-.04,1.66-.09,3.21-.29,4.69-.57,1.48-.29,2.88-.66,4.22-1.2.33-.13.66-.29.99-.44l.25-.13c.13-.07.27-.14.4-.22l.74-.49c.45-.34.85-.72,1.2-1.09.35-.36.77-.79,1.03-1.09-.35-.32-.7-.64-1.05-.95-.35-.33-.73-.62-.98-.99-.21-.31-.26-.46-.35-.68l4.32.94h0Zm10.59-9.89c-.26.1-.48.11-.76.06-.28-.05-.63-.2-1.01-.45-1.09-.76-1.87-1.94-2.42-2.88-.56-.96-.94-1.77-1.29-2.37-.66-1.22-1.14-1.63-1.62-1.52-.44.09-.71,1.57-.23,3.74.23,1.01.63,2.18,1.33,3.35-.16.02-.34.05-.55.09-.89.16-2.17.5-3.74,1.1-.39.16-.8.33-1.23.5-.42.2-.86.43-1.31.66-.9.49-1.84,1.11-2.76,1.95-.88.85-1.78,2.03-2.04,3.63-.07.79-.03,1.66.31,2.43.46,1.01.46.89.62,1.11l.05.05s-.04.04-.05.06c-.04.04-.09.07-.14.1-.09.06-.19.11-.28.16l-.53.23c-.27.12-.57.22-.86.32-1.19.39-2.5.67-3.86.87-1.36.2-2.77.32-4.19.34-.35,0-.71,0-1.06,0l-.45-.02s-.11-.01-.12-.02c-.08-.03-.17-.03-.19-.1.16-.23-.19.17,1.13-1.15.49-.47,1-.93,1.52-1.38l.93-.8,1.64-1.35-.96-2.41-.46-1.23c-.3-.82-.58-1.63-.79-2.42-.38-1.35-.52-2.58-.29-3.49.2-.9.87-1.69,1.77-2.44,1.84-1.48,4.16-2.58,6.24-3.59,2.12-1,4.13-1.9,5.97-2.72,1.21-.53,2.36-1.04,3.45-1.52.07-.06.24-.05.24-.16v-.32s-.02-.62-.02-.62l-.02-.61v-.16s0-.06,0-.11v-.05s.01-.12.01-.12c0-.33.08-.64.15-.94.35-1.19,1.12-1.92,1.81-1.98.46-.09.97.09,1.42.34,3.85,2.66,7.29,8.5,6.09,14.17-.02.04-.03.07-.05.1-.35.67-.87,1.37-1.4,1.56h0Zm55.77-18.09c-.04.45-.07.9-.19,1.35-.14.91-.44,1.8-.72,2.7-.38.87-.69,1.76-1.18,2.58-1.78,3.37-4.33,5.8-6.77,7.55-2.44,1.82-4.93,2.77-6.9,3.66-1.03.35-1.94.67-2.73.98-.79.3-1.49.46-2.04.68-.09.03-.15.06-.23.1.14-1.04-.02-1.68-.24-1.73-.54-.16-1.31,1.72-3.16,3.91-.94,1.07-2.18,2.19-3.79,2.89-1.59.71-3.53,1.03-5.54.68-2.46-.4-4.77-1.77-6.57-3.65-1.58-1.62-2.73-3.66-3.58-5.84,2.35-.46,4.9-1.13,7.74-2,.08.51.15.94.26,1.29.18.58.43.92.74.98.31.06.67-.29,1.06-1.01.18-.36.42-.81.58-1.35.16-.54.32-1.16.48-1.86.11-.7.2-1.48.27-2.32,0-.83.05-1.74-.05-2.69-.05-.47-.1-.96-.15-1.45-.06-.49-.17-.99-.27-1.5-.09-.51-.21-1.02-.37-1.53-.15-.51-.28-1.04-.47-1.55-2.13-5.94-4.95-8.96-6.74-10.5-1.88-1.52-2.91-1.57-3.3-1.12-.21.24-.02.83.42,1.66.11.22.23.45.36.7-1.33.6-2.6,1.2-3.81,1.79-.4-2.18-.6-4.36-.31-6.4.32-2.25,1.25-4.26,2.89-5.63,1.33-1.15,3-1.87,4.61-2.36.79-.3,1.61-.42,2.35-.63.76-.14,1.48-.28,2.15-.41,2.67-.42,4.44-.68,4.47-1.22.02-.25-.4-.52-1.18-.77-.78-.28-1.94-.47-3.41-.61-.03,0-.06,0-.09,0,.11-.29.23-.62.39-1.01.15-.28.25-.6.46-.89.09-.15.19-.3.29-.46.12-.14.25-.29.37-.44.54-.56,1.19-1.11,2.09-1.45.88-.34,1.89-.61,3.05-.67,1.14-.11,2.39-.04,3.68.06.65.09,1.31.18,1.98.27.67.12,1.34.25,2.02.38.68.16,1.36.32,2.05.48.68.16,1.33.38,1.99.55,2.61.79,4.77,1.8,6.27,2.95,1.52,1.15,2.27,2.42,2.65,3.54.27.82.3,1.55.28,2.16-1.39-.78-2.49-1.17-3.25-1.38-1.02-.23-1.5-.16-1.62.1-.13.28.77.97,2.24,2.15,1.45,1.2,3.49,2.91,5.42,5.34,1.94,2.4,3.78,5.52,4.73,9.09l.18.67.09.61c.03.21.08.4.09.61v.65s.03.65.03.65l-.07.67h0Zm19.74-13.99c-.05.4-.14.67-.2.81-.07.13-.08.18-.19.27-.21.18-.84.25-1.38.24-.49-.02-.93-.06-1.34-.11.73-4.61-1.78-9.17-5.43-13.7-.25.04-.53.09-.79.13.21-.27.43-.55.68-.86.39-.5.88-1.02,1.4-1.41.54-.41,1.03-.49,1.35-.35.36.12.94.56,1.51,1.26,1.13,1.41,2.16,3.53,2.89,5.76.56,1.7.98,3.24,1.24,4.61.27,1.36.35,2.56.26,3.36h0Z"/><path d="m496.77,338.59c-1.51.93-3.55,2.05-5.63,2.97-2.09.91-3.79,1.48-4.97,1.9-1.17.42-1.81.68-1.77.89.03.18,1,.21,2.53-.05,1.53-.26,3.61-.87,5.76-1.9,3.08-1.5,4.76-2.9,5.71-3.78.94-.9,1.14-1.34,1.02-1.48-.14-.15-1.14.53-2.65,1.46h0Z"/><path class="cls-13" d="m364.19,399.71c6.34-9.34-8.57-22.58-22.29-11.56-24.7-12.88-47.56,32.68-13.06,20.08,1.85,3.01,10.67,3.86,14.09-.96,15.85,5.36,26.1-2.57,15.73-11.22"/><path class="cls-10" d="m353.4,383.99c.63,2.31,1.59,4.51.06,6.76.63,1.55.24,3.05-1.81,2.83,10.37,8.65-4.84,10.38-20.69,5.01-3.42,4.83-12.25,3.97-14.09.96-1.82.67-3.48,1.16-4.99,1.52-2.26,7.02,1.84,12.68,16.97,7.15,1.85,3.01,10.67,3.86,14.09-.96,13.01,4.4,22.25-.15,19.4-6.71l1.85-.84c4.53-6.68-1.8-15.35-10.8-15.72h0Z"/><path class="cls-1" d="m358.67,396.05c.14-.17.93.1,2.14,1.05.59.49,1.32,1.14,2,2.11.35.48.67,1.05.93,1.73.15.33.22.71.33,1.09.05.4.13.81.1,1.26,0,.88-.23,1.85-.71,2.71-.47.87-1.15,1.64-1.94,2.27-1.6,1.25-3.57,1.98-5.65,2.39-2.09.38-4.33.47-6.64.24-1.16-.1-2.33-.28-3.51-.53-.6-.11-1.18-.27-1.78-.41-.09,0-.21-.04-.3-.03l-.09.14s-.04.05-.04.06c.06-.04-.06.06-.13.13l-.23.21c-.3.29-.65.5-.98.73-.33.24-.69.44-1.05.61-1.44.73-2.99,1.15-4.57,1.32-1.58.16-3.19.09-4.85-.3-.42-.1-.84-.24-1.26-.37-.43-.18-.85-.33-1.29-.57-.41-.23-1.02-.61-.91-.55l-.09-.07-.08.05c.09-.02-.25.09-.49.16l-.75.24c-1.01.32-2.05.6-3.12.85-1.08.23-2.19.44-3.37.54-1.16.12-2.39.15-3.69,0-1.29-.15-2.69-.49-4.06-1.25-1.38-.74-2.63-2.07-3.33-3.58-.68-1.52-.86-3.1-.78-4.52.09-1.43.4-2.75.83-3.98.99-2.79,2.5-5.14,4.24-7.22,1.75-2.06,3.75-3.83,5.92-5.28,4.34-2.89,9.54-4.43,14.49-4.05,2.46.19,4.81.77,6.91,1.68l.39.17.2.09s-.03,0,0,0l.09.06c.06.07.12.04.18,0l.1-.05.7-.43c.46-.29.93-.56,1.42-.8,3.83-2,8.16-2.57,11.8-1.75,3.67.79,6.58,2.8,8.42,5.07,1.88,2.28,2.63,4.88,2.61,6.95-.04,2.09-.75,3.58-1.35,4.41-.6.85-1.09,1.14-1.23,1.04-.18-.12-.02-.63.19-1.52.22-.88.45-2.19.18-3.77-.29-1.56-1.12-3.41-2.77-4.98-1.61-1.57-3.98-2.89-6.78-3.25-2.78-.39-5.93.22-8.84,1.93-.37.2-.73.43-1.08.69l-.54.37-1.09.84-1.11.85c-.17.25-.4,0-.61-.07l-.64-.29-1.29-.59c-.09-.05-.25-.11-.35-.15l-.16-.06-.32-.12c-1.69-.65-3.49-1.01-5.35-1.09-3.71-.16-7.64,1.08-11.08,3.44-1.72,1.19-3.32,2.64-4.7,4.29-1.37,1.65-2.53,3.53-3.21,5.46-.29.84-.48,1.68-.53,2.43-.05.76.07,1.38.26,1.84.23.43.48.77.98,1.05.48.28,1.17.49,1.95.59,1.57.21,3.43,0,5.23-.35.91-.19,1.81-.41,2.71-.67l.67-.2c.23-.07.37-.1.92-.29.9-.31,1.8-.61,2.7-.92.81.91,2.06,2.25,2.11,2.13.17.1.4.19.59.29.24.07.46.16.71.23.99.27,2.09.38,3.13.31,1.04-.07,2.04-.3,2.87-.68.22-.09.42-.18.6-.31.18-.12.39-.21.54-.36l.34-.28c.21-.22.39-.44.58-.65.37-.43.74-.86,1.1-1.28,1.03.34,2.05.67,3.06,1,.52.15,1.03.33,1.54.45,1.02.28,2.03.5,3.01.66,1.97.34,3.84.4,5.54.24,1.69-.17,3.2-.61,4.31-1.29,1.09-.69,1.75-1.56,1.88-2.53.2-.97-.12-2-.48-2.86-.37-.88-.85-1.59-1.23-2.18-.8-1.17-1.29-1.81-1.11-2.01h0Z"/><ellipse cx="322.53" cy="401.88" rx="2.07" ry="1.71" transform="translate(-35.62 31.39) rotate(-5.28)"/><ellipse cx="351.54" cy="389.38" rx="1.59" ry="1.04" transform="translate(-135.51 194.48) rotate(-26.11)"/><ellipse cx="356.32" cy="388.06" rx=".9" ry="1.03" transform="translate(-147.23 542.97) rotate(-64.54)"/></svg>